<svg width="28" height="28" viewBox="0 0 28 28" fill="none" xmlns="http://www.w3.org/2000/svg">
<g clip-path="url(#clip0_374_2)">
<path d="M21.7517 27.9999H7.52538C6.18606 27.9999 5.09654 26.9104 5.09654 25.5724L3.08186 16.1106C2.32113 15.7334 1.82031 14.9625 1.82031 14.1036C1.82031 12.8471 2.84231 11.8264 4.0975 11.8264H24.9031C26.1583 11.8264 27.1816 12.8471 27.1816 14.1036C27.1816 14.8389 26.8261 15.5117 26.2335 15.9361L24.164 25.7253C24.1806 26.9103 23.091 27.9999 21.7517 27.9999ZM4.0975 13.3199C3.66551 13.3199 3.31381 13.6716 3.31381 14.1036C3.31381 14.4438 3.55978 14.7458 3.9127 14.8351C4.18792 14.9052 4.39951 15.1269 4.45685 15.4047L6.5735 25.4182C6.59004 26.0872 7.00933 26.5052 7.52415 26.5052H21.7505C22.2666 26.5052 22.6845 26.0872 22.6845 25.5712L24.8369 15.3105C24.884 15.0849 25.0319 14.8938 25.237 14.7931C25.5135 14.6593 25.6856 14.393 25.6856 14.1024C25.6856 13.6705 25.3339 13.3188 24.9019 13.3188H4.0975V13.3199Z" fill="#231F20"/>
<path d="M9.44337 23.619C9.44337 23.9083 9.20635 24.1453 8.91706 24.1453H8.77306C8.48376 24.1453 8.24805 23.9083 8.24805 23.619V17.4679C8.24805 17.1786 8.48506 16.9429 8.77306 16.9429H8.91836C9.20765 16.9429 9.44467 17.1799 9.44467 17.4679V23.619H9.44337Z" fill="#231F20"/>
<path d="M13.2916 23.619C13.2916 23.9083 13.0546 24.1453 12.7666 24.1453H12.6201C12.3308 24.1453 12.0938 23.9083 12.0938 23.619V17.4679C12.0938 17.1786 12.3308 16.9429 12.6201 16.9429H12.7654C13.0547 16.9429 13.2904 17.1799 13.2904 17.4679V23.619H13.2916Z" fill="#231F20"/>
<path d="M17.138 23.619C17.138 23.9083 16.901 24.1453 16.613 24.1453H16.4677C16.1784 24.1453 15.9414 23.9083 15.9414 23.619V17.4679C15.9414 17.1786 16.1784 16.9429 16.4677 16.9429H16.613C16.9023 16.9429 17.138 17.1799 17.138 17.4679V23.619Z" fill="#231F20"/>
<path d="M20.9876 23.619C20.9876 23.9083 20.7506 24.1453 20.4613 24.1453H20.316C20.0267 24.1453 19.791 23.9083 19.791 23.619V17.4679C19.791 17.1786 20.028 16.9429 20.316 16.9429H20.4613C20.7506 16.9429 20.9876 17.1799 20.9876 17.4679V23.619Z" fill="#231F20"/>
<path d="M14.5163 1C9.68153 1 5.76172 4.91974 5.76172 9.75447H7.34571C7.34571 5.79392 10.5557 2.58399 14.5162 2.58399C18.4767 2.58399 21.6867 5.79399 21.6867 9.75447H23.2706C23.2694 4.91974 19.3509 1 14.5163 1Z" fill="#231F20"/>
</g>
<defs>
<clipPath id="clip0_374_2">
<rect width="27" height="27" fill="white" transform="translate(1 1)"/>
</clipPath>
</defs>
</svg>
