<svg width="52" height="52" viewBox="0 0 52 52" fill="none" xmlns="http://www.w3.org/2000/svg">
<circle cx="26" cy="26" r="26" fill="#484848"/>
<path d="M18.9641 37.86L37.439 27.5141C37.7104 27.3621 37.9364 27.1405 38.0937 26.8721C38.2511 26.6037 38.334 26.2982 38.334 25.9871C38.334 25.676 38.2511 25.3705 38.0937 25.1021C37.9364 24.8337 37.7104 24.6121 37.439 24.4601L18.9641 14.1141C18.6533 13.94 18.2967 13.8649 17.942 13.8989C17.5873 13.9329 17.2515 14.0744 16.9794 14.3043C16.7072 14.5343 16.5118 14.8419 16.4192 15.1859C16.3265 15.53 16.3411 15.8941 16.461 16.2296L19.9457 25.987L16.461 35.7445C16.3924 35.9356 16.3572 36.1371 16.3569 36.3401C16.3587 36.6447 16.4398 36.9437 16.5923 37.2074C16.7449 37.4712 16.9635 37.6906 17.2267 37.844C17.4899 37.9975 17.7886 38.0796 18.0933 38.0824C18.3979 38.0852 18.698 38.0085 18.964 37.86L18.9641 37.86ZM21.4916 26.8621L27.8749 26.8621C28.107 26.8621 28.3295 26.7699 28.4936 26.6058C28.6577 26.4417 28.7499 26.2191 28.7499 25.9871C28.7499 25.755 28.6577 25.5325 28.4936 25.3684C28.3295 25.2043 28.107 25.1121 27.8749 25.1121L21.4916 25.1121L18.1099 15.6415L36.5841 25.9871L18.1094 36.3322L21.4916 26.8621Z" fill="#50FF61"/>
</svg>
